<svg width="20" height="20" viewBox="0 0 20 20" fill="none" xmlns="http://www.w3.org/2000/svg">
<path d="M19.7649 18.5469L14.1835 12.9079C15.4483 11.3125 16.054 9.29256 15.876 7.26374C15.698 5.23493 14.7498 3.35158 13.2265 2.00124C11.7032 0.650897 9.72073 -0.0637101 7.68701 0.00446548C5.65329 0.0726411 3.72303 0.918414 2.29344 2.36774C0.863851 3.81707 0.0436777 5.7597 0.00169474 7.79589C-0.0402882 9.83208 0.699113 11.8069 2.06775 13.314C3.43638 14.8212 5.33013 15.7459 7.35931 15.898C9.38849 16.0501 11.3987 15.418 12.9764 14.1317L18.5213 19.7335C18.6782 19.8981 18.8938 19.9939 19.1211 19.9997C19.3483 20.0056 19.5685 19.9211 19.7337 19.7648C19.8982 19.6069 19.9939 19.3904 19.9997 19.1623C20.0056 18.9342 19.9212 18.713 19.7649 18.5469ZM7.93238 14.1986C6.47934 14.1983 5.07136 13.6937 3.94833 12.7709C2.82529 11.8481 2.05668 10.5641 1.77344 9.13773C1.49021 7.71133 1.70987 6.23076 2.395 4.94828C3.08013 3.6658 4.18835 2.66074 5.53085 2.10435C6.87334 1.54796 8.36705 1.47466 9.75749 1.89693C11.1479 2.3192 12.3491 3.21092 13.1563 4.42016C13.9635 5.6294 14.3268 7.08136 14.1844 8.52865C14.0419 9.97594 13.4025 11.329 12.3751 12.3574C11.7929 12.9429 11.1005 13.4072 10.3379 13.7232C9.57535 14.0393 8.75774 14.2008 7.93238 14.1986Z" fill="#F29C46"/>
</svg>
