<svg width="19" height="22" viewBox="0 0 19 22" fill="none" xmlns="http://www.w3.org/2000/svg">
<path d="M2.06995 6.94852V20.4555C2.07127 20.8133 2.21406 21.1561 2.46716 21.409C2.72027 21.6619 3.06314 21.8045 3.42095 21.8055H15.5769C15.9349 21.8045 16.2779 21.6618 16.5311 21.4087C16.7842 21.1555 16.9269 20.8125 16.9279 20.4545V6.94852H2.06995ZM6.12095 19.1045H4.77195V9.64952H6.12095V19.1045ZM8.82095 19.1045H7.47295V9.64952H8.82095V19.1045ZM11.5209 19.1045H10.1749V9.64952H11.5209V19.1045ZM14.2209 19.1045H12.8759V9.64952H14.2269L14.2209 19.1045ZM17.2659 2.89552H12.8759V1.20752C12.8752 0.939098 12.7682 0.681897 12.5784 0.492094C12.3886 0.302291 12.1314 0.19531 11.8629 0.194519H7.13595C6.86718 0.194782 6.60947 0.30153 6.41923 0.49139C6.229 0.68125 6.12174 0.938752 6.12095 1.20752V2.89552H1.73295C1.4647 2.89657 1.20775 3.00367 1.01817 3.19345C0.82858 3.38322 0.721737 3.64027 0.720947 3.90852V5.59752H18.2789V3.90852C18.2782 3.6401 18.1712 3.3829 17.9814 3.19309C17.7916 3.00329 17.5344 2.89631 17.2659 2.89552ZM11.5259 2.89552H7.47295V1.56652H11.5209V2.89552H11.5259Z" fill="#F29C46"/>
</svg>
